<mxfile host="app.diagrams.net" modified="2024-07-25T13:12:40.217Z" agent="Mozilla/5.0 (Macintosh; Intel Mac OS X 10_15_7) AppleWebKit/537.36 (KHTML, like Gecko) Chrome/126.0.0.0 Safari/537.36" etag="Z8TLH7PkTFDL9P31qatc" version="24.7.3" type="github">
  <diagram name="Page-1" id="bd3bKD5Anm2K08p84zmS">
    <mxGraphModel dx="1306" dy="835" grid="1" gridSize="10" guides="1" tooltips="1" connect="1" arrows="1" fold="1" page="1" pageScale="1" pageWidth="850" pageHeight="1100" math="0" shadow="0">
      <root>
        <mxCell id="0" />
        <mxCell id="1" parent="0" />
        <mxCell id="nd52oZg4v-DMNEn8dRgA-3" value="ANDRIOD PHONES" style="rounded=1;whiteSpace=wrap;html=1;" parent="1" vertex="1">
          <mxGeometry x="20" y="60" width="340" height="40" as="geometry" />
        </mxCell>
        <mxCell id="nd52oZg4v-DMNEn8dRgA-6" value="POSTGRESQL" style="rounded=1;whiteSpace=wrap;html=1;" parent="1" vertex="1">
          <mxGeometry x="30" y="610" width="500" height="60" as="geometry" />
        </mxCell>
        <mxCell id="nd52oZg4v-DMNEn8dRgA-53" value="" style="group" parent="1" vertex="1" connectable="0">
          <mxGeometry x="20" y="160" width="350" height="210" as="geometry" />
        </mxCell>
        <mxCell id="nd52oZg4v-DMNEn8dRgA-1" value="" style="rounded=1;whiteSpace=wrap;html=1;arcSize=4;" parent="nd52oZg4v-DMNEn8dRgA-53" vertex="1">
          <mxGeometry width="350" height="210" as="geometry" />
        </mxCell>
        <mxCell id="nd52oZg4v-DMNEn8dRgA-16" value="REACT NATIVE / DELIVERY APP" style="text;html=1;align=center;verticalAlign=middle;whiteSpace=wrap;rounded=0;" parent="nd52oZg4v-DMNEn8dRgA-53" vertex="1">
          <mxGeometry x="70" y="6.13" width="230.01" height="26.25" as="geometry" />
        </mxCell>
        <mxCell id="nd52oZg4v-DMNEn8dRgA-17" value="NETWORK CALLS" style="rounded=1;whiteSpace=wrap;html=1;" parent="nd52oZg4v-DMNEn8dRgA-53" vertex="1">
          <mxGeometry x="17.5" y="40" width="162.5" height="30" as="geometry" />
        </mxCell>
        <mxCell id="nd52oZg4v-DMNEn8dRgA-18" value="COMMON COMPONENTS SEGREGATION" style="rounded=1;whiteSpace=wrap;html=1;" parent="nd52oZg4v-DMNEn8dRgA-53" vertex="1">
          <mxGeometry x="17.5" y="148.75" width="315" height="35" as="geometry" />
        </mxCell>
        <mxCell id="nd52oZg4v-DMNEn8dRgA-19" value="VISUALIZATION" style="rounded=1;whiteSpace=wrap;html=1;" parent="nd52oZg4v-DMNEn8dRgA-53" vertex="1">
          <mxGeometry x="17.5" y="78.75" width="122.5" height="26.25" as="geometry" />
        </mxCell>
        <mxCell id="nd52oZg4v-DMNEn8dRgA-20" value="LOCALIZATION" style="rounded=1;whiteSpace=wrap;html=1;" parent="nd52oZg4v-DMNEn8dRgA-53" vertex="1">
          <mxGeometry x="220" y="78.75" width="112.5" height="26.25" as="geometry" />
        </mxCell>
        <mxCell id="nd52oZg4v-DMNEn8dRgA-21" value="TESTING" style="rounded=1;whiteSpace=wrap;html=1;" parent="nd52oZg4v-DMNEn8dRgA-53" vertex="1">
          <mxGeometry x="144.38" y="78.755" width="70" height="26.25" as="geometry" />
        </mxCell>
        <mxCell id="nd52oZg4v-DMNEn8dRgA-22" value="FEATURE TOGGLE / CONFIGURATION" style="rounded=1;whiteSpace=wrap;html=1;" parent="nd52oZg4v-DMNEn8dRgA-53" vertex="1">
          <mxGeometry x="17.5" y="113.75" width="315" height="26.25" as="geometry" />
        </mxCell>
        <mxCell id="nd52oZg4v-DMNEn8dRgA-23" value="AUTHENTICATION" style="rounded=1;whiteSpace=wrap;html=1;" parent="nd52oZg4v-DMNEn8dRgA-53" vertex="1">
          <mxGeometry x="190" y="39.38" width="142.5" height="30.62" as="geometry" />
        </mxCell>
        <mxCell id="nd52oZg4v-DMNEn8dRgA-56" value="" style="group;movable=1;resizable=1;rotatable=1;deletable=1;editable=1;locked=0;connectable=1;" parent="1" vertex="1" connectable="0">
          <mxGeometry x="800" y="50" width="120" height="790" as="geometry" />
        </mxCell>
        <mxCell id="nd52oZg4v-DMNEn8dRgA-28" value="" style="rounded=1;whiteSpace=wrap;html=1;movable=1;resizable=1;rotatable=1;deletable=1;editable=1;locked=0;connectable=1;" parent="nd52oZg4v-DMNEn8dRgA-56" vertex="1">
          <mxGeometry width="120" height="640" as="geometry" />
        </mxCell>
        <mxCell id="nd52oZg4v-DMNEn8dRgA-30" value="INFRA" style="text;html=1;align=center;verticalAlign=middle;whiteSpace=wrap;rounded=0;movable=1;resizable=1;rotatable=1;deletable=1;editable=1;locked=0;connectable=1;" parent="nd52oZg4v-DMNEn8dRgA-56" vertex="1">
          <mxGeometry x="30" y="20" width="60" height="30" as="geometry" />
        </mxCell>
        <mxCell id="nd52oZg4v-DMNEn8dRgA-31" value="GIT" style="rounded=1;whiteSpace=wrap;html=1;movable=1;resizable=1;rotatable=1;deletable=1;editable=1;locked=0;connectable=1;" parent="nd52oZg4v-DMNEn8dRgA-56" vertex="1">
          <mxGeometry x="20" y="60" width="80" height="40" as="geometry" />
        </mxCell>
        <mxCell id="nd52oZg4v-DMNEn8dRgA-32" value="LINTERS" style="rounded=1;whiteSpace=wrap;html=1;movable=1;resizable=1;rotatable=1;deletable=1;editable=1;locked=0;connectable=1;" parent="nd52oZg4v-DMNEn8dRgA-56" vertex="1">
          <mxGeometry x="20" y="120" width="80" height="40" as="geometry" />
        </mxCell>
        <mxCell id="nd52oZg4v-DMNEn8dRgA-33" value="PRETTIER" style="rounded=1;whiteSpace=wrap;html=1;movable=1;resizable=1;rotatable=1;deletable=1;editable=1;locked=0;connectable=1;" parent="nd52oZg4v-DMNEn8dRgA-56" vertex="1">
          <mxGeometry x="20" y="190" width="80" height="40" as="geometry" />
        </mxCell>
        <mxCell id="nd52oZg4v-DMNEn8dRgA-34" value="COVERAGE" style="rounded=1;whiteSpace=wrap;html=1;movable=1;resizable=1;rotatable=1;deletable=1;editable=1;locked=0;connectable=1;" parent="nd52oZg4v-DMNEn8dRgA-56" vertex="1">
          <mxGeometry x="20" y="260" width="80" height="40" as="geometry" />
        </mxCell>
        <mxCell id="nd52oZg4v-DMNEn8dRgA-35" value="Static Code Analysis" style="rounded=1;whiteSpace=wrap;html=1;movable=1;resizable=1;rotatable=1;deletable=1;editable=1;locked=0;connectable=1;" parent="nd52oZg4v-DMNEn8dRgA-56" vertex="1">
          <mxGeometry x="20" y="330" width="80" height="40" as="geometry" />
        </mxCell>
        <mxCell id="nd52oZg4v-DMNEn8dRgA-37" value="Generate APK" style="rounded=1;whiteSpace=wrap;html=1;movable=1;resizable=1;rotatable=1;deletable=1;editable=1;locked=0;connectable=1;" parent="nd52oZg4v-DMNEn8dRgA-56" vertex="1">
          <mxGeometry x="20" y="410" width="80" height="40" as="geometry" />
        </mxCell>
        <mxCell id="nd52oZg4v-DMNEn8dRgA-38" value="Deploy to various ENVs" style="rounded=1;whiteSpace=wrap;html=1;movable=1;resizable=1;rotatable=1;deletable=1;editable=1;locked=0;connectable=1;" parent="nd52oZg4v-DMNEn8dRgA-56" vertex="1">
          <mxGeometry x="20" y="490" width="80" height="40" as="geometry" />
        </mxCell>
        <mxCell id="nd52oZg4v-DMNEn8dRgA-97" value="HOSTING" style="rounded=1;whiteSpace=wrap;html=1;movable=1;resizable=1;rotatable=1;deletable=1;editable=1;locked=0;connectable=1;" parent="nd52oZg4v-DMNEn8dRgA-56" vertex="1">
          <mxGeometry x="20" y="570" width="80" height="40" as="geometry" />
        </mxCell>
        <mxCell id="nd52oZg4v-DMNEn8dRgA-57" value="WEBPAGE / BROWSER" style="rounded=1;whiteSpace=wrap;html=1;" parent="1" vertex="1">
          <mxGeometry x="410" y="60" width="340" height="40" as="geometry" />
        </mxCell>
        <mxCell id="nd52oZg4v-DMNEn8dRgA-59" value="" style="group" parent="1" vertex="1" connectable="0">
          <mxGeometry x="410" y="160" width="350" height="210" as="geometry" />
        </mxCell>
        <mxCell id="nd52oZg4v-DMNEn8dRgA-60" value="" style="rounded=1;whiteSpace=wrap;html=1;arcSize=4;" parent="nd52oZg4v-DMNEn8dRgA-59" vertex="1">
          <mxGeometry width="350" height="210" as="geometry" />
        </mxCell>
        <mxCell id="nd52oZg4v-DMNEn8dRgA-61" value="REACT JS / ADMIN PORTAL" style="text;html=1;align=center;verticalAlign=middle;whiteSpace=wrap;rounded=0;" parent="nd52oZg4v-DMNEn8dRgA-59" vertex="1">
          <mxGeometry x="60" y="6.13" width="240.01" height="26.25" as="geometry" />
        </mxCell>
        <mxCell id="nd52oZg4v-DMNEn8dRgA-62" value="NETWORK CALLS" style="rounded=1;whiteSpace=wrap;html=1;" parent="nd52oZg4v-DMNEn8dRgA-59" vertex="1">
          <mxGeometry x="17.5" y="40" width="162.5" height="30" as="geometry" />
        </mxCell>
        <mxCell id="nd52oZg4v-DMNEn8dRgA-63" value="COMMON COMPONENTS SEGREGATION" style="rounded=1;whiteSpace=wrap;html=1;" parent="nd52oZg4v-DMNEn8dRgA-59" vertex="1">
          <mxGeometry x="17.5" y="148.75" width="315" height="35" as="geometry" />
        </mxCell>
        <mxCell id="nd52oZg4v-DMNEn8dRgA-64" value="VISUALIZATION" style="rounded=1;whiteSpace=wrap;html=1;" parent="nd52oZg4v-DMNEn8dRgA-59" vertex="1">
          <mxGeometry x="17.5" y="78.75" width="122.5" height="26.25" as="geometry" />
        </mxCell>
        <mxCell id="nd52oZg4v-DMNEn8dRgA-65" value="LOCALIZATION" style="rounded=1;whiteSpace=wrap;html=1;" parent="nd52oZg4v-DMNEn8dRgA-59" vertex="1">
          <mxGeometry x="220" y="78.75" width="112.5" height="26.25" as="geometry" />
        </mxCell>
        <mxCell id="nd52oZg4v-DMNEn8dRgA-66" value="TESTING" style="rounded=1;whiteSpace=wrap;html=1;" parent="nd52oZg4v-DMNEn8dRgA-59" vertex="1">
          <mxGeometry x="144.38" y="78.755" width="70" height="26.25" as="geometry" />
        </mxCell>
        <mxCell id="nd52oZg4v-DMNEn8dRgA-67" value="FEATURE TOGGLE / CONFIGURATION" style="rounded=1;whiteSpace=wrap;html=1;" parent="nd52oZg4v-DMNEn8dRgA-59" vertex="1">
          <mxGeometry x="17.5" y="113.75" width="315" height="26.25" as="geometry" />
        </mxCell>
        <mxCell id="nd52oZg4v-DMNEn8dRgA-68" value="AUTHENTICATION" style="rounded=1;whiteSpace=wrap;html=1;" parent="nd52oZg4v-DMNEn8dRgA-59" vertex="1">
          <mxGeometry x="190" y="39.38" width="142.5" height="30.62" as="geometry" />
        </mxCell>
        <mxCell id="nd52oZg4v-DMNEn8dRgA-69" value="" style="endArrow=classic;startArrow=classic;html=1;rounded=0;entryX=0.5;entryY=1;entryDx=0;entryDy=0;" parent="1" target="nd52oZg4v-DMNEn8dRgA-3" edge="1">
          <mxGeometry width="50" height="50" relative="1" as="geometry">
            <mxPoint x="190" y="160" as="sourcePoint" />
            <mxPoint x="450" y="330" as="targetPoint" />
          </mxGeometry>
        </mxCell>
        <mxCell id="nd52oZg4v-DMNEn8dRgA-80" value="" style="endArrow=classic;startArrow=classic;html=1;rounded=0;entryX=0.5;entryY=1;entryDx=0;entryDy=0;" parent="1" edge="1">
          <mxGeometry width="50" height="50" relative="1" as="geometry">
            <mxPoint x="596" y="161" as="sourcePoint" />
            <mxPoint x="596" y="101" as="targetPoint" />
          </mxGeometry>
        </mxCell>
        <mxCell id="nd52oZg4v-DMNEn8dRgA-84" value="" style="group" parent="1" vertex="1" connectable="0">
          <mxGeometry x="20" y="410" width="510" height="140" as="geometry" />
        </mxCell>
        <mxCell id="nd52oZg4v-DMNEn8dRgA-7" value="" style="rounded=1;whiteSpace=wrap;html=1;" parent="nd52oZg4v-DMNEn8dRgA-84" vertex="1">
          <mxGeometry width="510" height="140" as="geometry" />
        </mxCell>
        <mxCell id="nd52oZg4v-DMNEn8dRgA-39" value="LOGGING &amp;amp; TRACING" style="rounded=1;whiteSpace=wrap;html=1;" parent="nd52oZg4v-DMNEn8dRgA-84" vertex="1">
          <mxGeometry x="315" y="40" width="170" height="30" as="geometry" />
        </mxCell>
        <mxCell id="nd52oZg4v-DMNEn8dRgA-40" value="AUTHENTICATION &amp;amp; AUTHORIZATION" style="rounded=1;whiteSpace=wrap;html=1;" parent="nd52oZg4v-DMNEn8dRgA-84" vertex="1">
          <mxGeometry x="205" y="90" width="280" height="30" as="geometry" />
        </mxCell>
        <mxCell id="nd52oZg4v-DMNEn8dRgA-41" value="API&#39;s Serving for both Native and Web Apps" style="rounded=1;whiteSpace=wrap;html=1;" parent="nd52oZg4v-DMNEn8dRgA-84" vertex="1">
          <mxGeometry x="20" y="40" width="280" height="30" as="geometry" />
        </mxCell>
        <mxCell id="nd52oZg4v-DMNEn8dRgA-82" value="API LAYER" style="text;html=1;align=center;verticalAlign=middle;whiteSpace=wrap;rounded=0;" parent="nd52oZg4v-DMNEn8dRgA-84" vertex="1">
          <mxGeometry x="215" y="10" width="80" height="30" as="geometry" />
        </mxCell>
        <mxCell id="nd52oZg4v-DMNEn8dRgA-83" value="CRUD with Database" style="rounded=1;whiteSpace=wrap;html=1;" parent="nd52oZg4v-DMNEn8dRgA-84" vertex="1">
          <mxGeometry x="20" y="90" width="175" height="30" as="geometry" />
        </mxCell>
        <mxCell id="nd52oZg4v-DMNEn8dRgA-86" value="AUTHENTICATION MODULE" style="rounded=1;whiteSpace=wrap;html=1;" parent="1" vertex="1">
          <mxGeometry x="560" y="410" width="210" height="140" as="geometry" />
        </mxCell>
        <mxCell id="nd52oZg4v-DMNEn8dRgA-93" value="" style="endArrow=classic;startArrow=classic;html=1;rounded=0;entryX=0.5;entryY=1;entryDx=0;entryDy=0;" parent="1" target="nd52oZg4v-DMNEn8dRgA-1" edge="1">
          <mxGeometry width="50" height="50" relative="1" as="geometry">
            <mxPoint x="195" y="407" as="sourcePoint" />
            <mxPoint x="190" y="380" as="targetPoint" />
          </mxGeometry>
        </mxCell>
        <mxCell id="nd52oZg4v-DMNEn8dRgA-94" value="" style="endArrow=classic;startArrow=classic;html=1;rounded=0;exitX=0.912;exitY=0.007;exitDx=0;exitDy=0;exitPerimeter=0;" parent="1" source="nd52oZg4v-DMNEn8dRgA-7" edge="1">
          <mxGeometry width="50" height="50" relative="1" as="geometry">
            <mxPoint x="400" y="350" as="sourcePoint" />
            <mxPoint x="485" y="380" as="targetPoint" />
          </mxGeometry>
        </mxCell>
        <mxCell id="nd52oZg4v-DMNEn8dRgA-95" value="" style="endArrow=classic;startArrow=classic;html=1;rounded=0;exitX=1.008;exitY=0.564;exitDx=0;exitDy=0;exitPerimeter=0;entryX=-0.005;entryY=0.564;entryDx=0;entryDy=0;entryPerimeter=0;" parent="1" source="nd52oZg4v-DMNEn8dRgA-7" target="nd52oZg4v-DMNEn8dRgA-86" edge="1">
          <mxGeometry width="50" height="50" relative="1" as="geometry">
            <mxPoint x="400" y="350" as="sourcePoint" />
            <mxPoint x="450" y="300" as="targetPoint" />
          </mxGeometry>
        </mxCell>
        <mxCell id="nd52oZg4v-DMNEn8dRgA-96" value="" style="endArrow=classic;startArrow=classic;html=1;rounded=0;" parent="1" source="nd52oZg4v-DMNEn8dRgA-6" edge="1">
          <mxGeometry width="50" height="50" relative="1" as="geometry">
            <mxPoint x="400" y="350" as="sourcePoint" />
            <mxPoint x="280" y="560" as="targetPoint" />
          </mxGeometry>
        </mxCell>
      </root>
    </mxGraphModel>
  </diagram>
</mxfile>
